<svg data-v-0dd9719b="" version="1.0" xmlns="http://www.w3.org/2000/svg"
  xmlns:xlink="http://www.w3.org/1999/xlink" width="100%" height="100%"
  viewBox="0 0 340.000000 250.000000" preserveAspectRatio="xMidYMid meet"
  color-interpolation-filters="sRGB" style="margin: auto;">
  <g data-v-0dd9719b="" class="iconmbgsvg"
    transform="translate(69.56999969482422,40.28007507324219)">
    <g fill="#000000" hollow-target="text">
      <g transform="translate(25.43000030517578,0)"
        mask="url(#8d4ad189-0544-4bed-95fc-c2cb66ab27ec)">
        <g>
          <rect fill="#FF0000" fill-opacity="0" stroke-width="2" x="0" y="0" width="150"
            height="169.43983191568674" class="image-rect"></rect>
          <svg filter="url(#colors4907951392)" x="0" y="0" width="150" height="169.43983191568674"
            filtersec="colorsf8382063579" class="image-svg-svg primary" style="overflow: visible;">
            <svg xmlns="http://www.w3.org/2000/svg" xmlns:xlink="http://www.w3.org/1999/xlink"
              version="1.1" preserveAspectRatio="none" x="0px" y="0px"
              viewBox="12.600000381469727 7.75 74.8499984741211 84.55000305175781">
              <defs>
                <g id="a">
                  <path stroke="none"
                    d=" M 87.45 52.75 Q 86.6 51.95 83.95 50.25 82.3 49.15 79.65 47.4 72.4 42.7 69.1 40.95 66.7 39.7 57.85 34.35 49.35 29.2 48.6 28.8 45.85 27.4 29.75 17.9 18.8 11.4 12.6 7.75 L 12.6 87.3 20.1 92.3 Q 26.8 88.5 32.9 84.8 48.5 75.4 54.9 72.1 58.6 70.2 64.15 66.85 72.15 62.1 72.9 61.7 77.7 59.4 81.7 57.15 87.25 54 87.45 52.75 M 15.9 13.5 Q 17.5 14.6 20.1 16.25 L 20.1 85.65 Q 17.95 84.5 15.9 82.85 L 15.9 13.5 M 23.4 18.5 Q 26.45 20.6 33.25 24.65 42 29.8 53.4 36.1 79.25 51.65 81.55 52.9 L 52.8 69.15 Q 30.95 81 23.65 85.7 L 23.4 18.5 M 28.1 25.35 Q 28 25.25 27.95 25.25 27.95 25.3 28 25.35 28.05 25.35 28.1 25.35 M 65.8 48.1 Q 64.25 47.25 58.35 43.7 52.7 40.25 52.2 40 50.35 39.05 39.65 32.7 32.3 28.4 28.2 25.95 L 28.2 66.5 Q 28.2 66.6 28.2 66.65 L 28.2 79.05 Q 32.6 76.5 36.7 74.05 47.15 67.75 51.35 65.55 53.85 64.25 57.55 62.05 62.85 58.9 63.4 58.6 66.55 57.1 69.25 55.55 72.95 53.45 73.1 52.65 72.45 52.1 70.3 50.7 68.05 49.3 65.8 48.1 M 50.4 41.5 Q 56.9 45.45 61.2 48.05 L 42.5 58.6 Q 35.3 62.5 30.5 65.2 L 30.35 29.8 Q 32.4 31.25 36.95 33.85 42.8 37.35 50.4 41.5 M 30.5 74.6 L 30.5 68.3 Q 39.9 62.6 43.85 60.55 46.35 59.25 50.05 57.05 55.35 53.9 55.9 53.6 59.05 52.1 61.75 50.55 62.8 49.95 63.6 49.45 68.35 52.3 69.15 52.75 L 50 63.6 Q 35.35 71.5 30.5 74.6 Z"></path>
                </g>
              </defs>
              <g transform="matrix( 1, 0, 0, 1, 0,0) ">
                <use xlink:href="#a"></use>
              </g>
            </svg>
          </svg>
          <defs>
            <filter id="colors4907951392">
              <feColorMatrix type="matrix" values="0 0 0 0 0  0 0 0 0 0  0 0 0 0 0  0 0 0 1 0"
                class="icon-fecolormatrix"></feColorMatrix>
            </filter>
            <filter id="colorsf8382063579">
              <feColorMatrix type="matrix"
                values="0 0 0 0 0.99609375  0 0 0 0 0.99609375  0 0 0 0 0.99609375  0 0 0 1 0"
                class="icon-fecolormatrix"></feColorMatrix>
            </filter>
            <filter id="colorsb5003565854">
              <feColorMatrix type="matrix" values="0 0 0 0 0  0 0 0 0 0  0 0 0 0 0  0 0 0 1 0"
                class="icon-fecolormatrix"></feColorMatrix>
            </filter>
          </defs>
        </g>
      </g>
      <g transform="translate(0,65.97492599487305)">
        <g data-gra="path-name" fill-rule="" class="tp-name">
          <g transform="scale(1)">
            <g>
              <path
                d="M22.58-28.68L22.58-28.68 22.58-23.77 14.18-23.77 14.18 0 9.26 0 9.26-23.77 0.82-23.77 0.82-28.68 9.26-28.68 14.18-28.68 22.58-28.68ZM35.36-21.06L35.36-21.06Q37.37-21.06 39.01-20.3 40.65-19.54 41.81-18.21 42.98-16.88 43.62-15.12 44.25-13.36 44.25-11.35L44.25-11.35 44.25 0 39.34 0 39.34-11.35Q39.34-12.33 38.97-13.19 38.6-14.05 37.9-14.75L37.9-14.75Q36.51-16.14 34.54-16.14L34.54-16.14Q32.53-16.14 31.14-14.75L31.14-14.75Q29.75-13.36 29.75-11.35L29.75-11.35 29.75 0 24.83 0 24.83-28.68 29.75-28.68 29.75-18.85Q30.85-19.83 32.25-20.45 33.64-21.06 35.36-21.06ZM51.63-18.93L51.63-18.93Q52.77-19.87 54.23-20.49 55.68-21.1 57.53-21.1L57.53-21.1 57.53-16.18Q55.07-16.18 53.35-14.46L53.35-14.46Q51.63-12.66 51.63-10.28L51.63-10.28 51.63 0 46.71 0 46.71-10.28 46.71-20.53 51.63-20.53 51.63-18.93ZM79.24-7.79L74.08-7.79 63.35-7.79Q63.76-6.84 64.53-6.11L64.53-6.11Q65.39-5.24 66.46-4.81 67.53-4.38 68.71-4.38L68.71-4.38Q70.39-4.38 71.7-5.16L71.7-5.16 76.83-3.11Q75.35-1.39 73.26-0.43 71.17 0.53 68.71 0.53L68.71 0.53Q66.46 0.53 64.49-0.31 62.53-1.15 61.05-2.62 59.58-4.1 58.74-6.06 57.9-8.03 57.9-10.24L57.9-10.24Q57.9-12.5 58.74-14.46 59.58-16.43 61.05-17.91 62.53-19.38 64.49-20.22 66.46-21.06 68.71-21.06L68.71-21.06Q70.97-21.06 72.93-20.22 74.9-19.38 76.38-17.91 77.85-16.43 78.69-14.46 79.53-12.5 79.53-10.24L79.53-10.24Q79.53-8.93 79.24-7.79L79.24-7.79ZM68.71-16.14L68.71-16.14Q66.34-16.14 64.53-14.42L64.53-14.42Q63.76-13.64 63.35-12.7L63.35-12.7 74.08-12.7Q73.67-13.64 72.89-14.42L72.89-14.42Q71.17-16.14 68.71-16.14ZM102.52-7.79L97.35-7.79 86.62-7.79Q87.03-6.84 87.81-6.11L87.81-6.11Q88.67-5.24 89.73-4.81 90.8-4.38 91.99-4.38L91.99-4.38Q93.67-4.38 94.98-5.16L94.98-5.16 100.1-3.11Q98.63-1.39 96.54-0.43 94.45 0.53 91.99 0.53L91.99 0.53Q89.73 0.53 87.77-0.31 85.8-1.15 84.33-2.62 82.85-4.1 82.01-6.06 81.17-8.03 81.17-10.24L81.17-10.24Q81.17-12.5 82.01-14.46 82.85-16.43 84.33-17.91 85.8-19.38 87.77-20.22 89.73-21.06 91.99-21.06L91.99-21.06Q94.24-21.06 96.21-20.22 98.17-19.38 99.65-17.91 101.12-16.43 101.96-14.46 102.8-12.5 102.8-10.24L102.8-10.24Q102.8-8.93 102.52-7.79L102.52-7.79ZM91.99-16.14L91.99-16.14Q89.61-16.14 87.81-14.42L87.81-14.42Q87.03-13.64 86.62-12.7L86.62-12.7 97.35-12.7Q96.95-13.64 96.17-14.42L96.17-14.42Q94.45-16.14 91.99-16.14Z"
                transform="translate(-0.8199999928474426, 29.299999237060547)"></path>
            </g> <!----> <!----> <!----> <!----> <!----> <!---->
            <g data-gra="path-name-1" fill="#000000" transform="translate(104.9800033569336,0)">
              <g transform="scale(1)">
                <path
                  d="M22.82-7.29L26.31-3.85Q24.26-1.8 21.55-0.64 18.85 0.53 15.73 0.53L15.73 0.53Q12.66 0.53 9.94-0.64 7.21-1.8 5.18-3.83 3.16-5.86 1.99-8.58 0.82-11.31 0.82-14.38L0.82-14.38Q0.82-17.46 1.99-20.18 3.16-22.9 5.18-24.93 7.21-26.96 9.94-28.13 12.66-29.3 15.73-29.3L15.73-29.3Q18.85-29.3 21.55-28.13 24.26-26.96 26.31-24.91L26.31-24.91 22.82-21.43Q21.39-22.86 19.59-23.62 17.78-24.38 15.73-24.38L15.73-24.38Q13.73-24.38 11.92-23.62 10.12-22.86 8.69-21.43L8.69-21.43Q7.25-20 6.49-18.19 5.74-16.39 5.74-14.38L5.74-14.38Q5.74-12.37 6.49-10.55 7.25-8.73 8.69-7.29L8.69-7.29Q10.12-5.86 11.92-5.12 13.73-4.38 15.73-4.38L15.73-4.38Q17.78-4.38 19.59-5.12 21.39-5.86 22.82-7.29L22.82-7.29ZM38.68-21.06L38.68-21.06Q40.69-21.06 42.33-20.3 43.97-19.54 45.13-18.21 46.3-16.88 46.94-15.12 47.57-13.36 47.57-11.35L47.57-11.35 47.57 0 42.65 0 42.65-11.35Q42.65-12.33 42.29-13.19 41.92-14.05 41.22-14.75L41.22-14.75Q39.83-16.14 37.86-16.14L37.86-16.14Q35.85-16.14 34.46-14.75L34.46-14.75Q33.07-13.36 33.07-11.35L33.07-11.35 33.07 0 28.15 0 28.15-28.68 33.07-28.68 33.07-18.85Q34.17-19.83 35.57-20.45 36.96-21.06 38.68-21.06ZM54.95 0L50.03 0 50.03-20.49 54.95-20.49 54.95 0ZM50.03-23.77L50.03-28.68 54.95-28.68 54.95-23.77 50.03-23.77ZM69.04-21.06L69.04-21.06Q71.3-21.06 73.2-20.22 75.11-19.38 76.5-17.91 77.89-16.43 78.67-14.46 79.45-12.5 79.45-10.24L79.45-10.24Q79.45-8.03 78.67-6.06 77.89-4.1 76.5-2.62 75.11-1.15 73.2-0.31 71.3 0.53 69.04 0.53L69.04 0.53Q66.54 0.53 64.66-0.41L64.66-0.41 66.42-4.79Q67.4-4.38 68.63-4.38L68.63-4.38Q69.82-4.38 70.89-4.81 71.95-5.24 72.81-6.11L72.81-6.11Q74.53-7.83 74.53-10.24L74.53-10.24Q74.53-12.7 72.81-14.42L72.81-14.42Q71.01-16.14 68.63-16.14L68.63-16.14Q66.17-16.14 64.45-14.42L64.45-14.42Q62.73-12.7 62.73-10.24L62.73-10.24 62.73-1.64 62.73 8.19 57.81 8.19 57.81-20.53 62.73-20.53 62.73-18.89Q63.92-19.83 65.48-20.45 67.03-21.06 69.04-21.06ZM89.69-12.7L89.69-12.7Q90.18-12.58 91.33-12.13 92.48-11.68 93.69-10.88 94.9-10.08 95.8-8.89 96.7-7.7 96.7-6.06L96.7-6.06Q96.7-4.63 96.23-3.44 95.76-2.25 94.86-1.35 93.95-0.45 92.64 0.04 91.33 0.53 89.69 0.53L89.69 0.53Q87.19 0.53 85.04-0.37 82.89-1.27 81.58-2.58L81.58-2.58 84.98-5.98Q86.05-4.71 87.25-4.34 88.46-3.97 89.28-3.97L89.28-3.97Q90.55-3.97 91.17-4.47 91.78-4.96 91.78-5.65L91.78-5.65Q91.78-6.15 91.37-6.51 90.96-6.88 90.41-7.13 89.86-7.38 89.28-7.52 88.71-7.66 88.34-7.79L88.34-7.79Q87.85-7.95 86.68-8.36 85.51-8.77 84.3-9.55 83.1-10.33 82.19-11.51 81.29-12.7 81.29-14.38L81.29-14.38Q81.29-16.1 81.89-17.35 82.48-18.6 83.46-19.42 84.45-20.24 85.72-20.63 86.99-21.02 88.34-21.02L88.34-21.02Q90.43-21.02 91.88-20.53 93.34-20.04 94.28-19.46L94.28-19.46Q95.35-18.77 96.08-17.91L96.08-17.91 92.64-14.46Q91.82-15.53 90.84-16.02 89.86-16.51 88.75-16.51L88.75-16.51Q87.89-16.51 87.05-16.1 86.21-15.69 86.21-14.79L86.21-14.79Q86.21-14.3 86.58-13.95 86.95-13.6 87.48-13.38 88.01-13.15 88.61-12.99 89.2-12.82 89.69-12.7Z"
                  transform="translate(-0.8199999928474426, 29.299999237060547)"></path>
              </g>
            </g>
          </g>
        </g> <!---->
      </g>
    </g>
  </g>
  <mask id="8d4ad189-0544-4bed-95fc-c2cb66ab27ec">
    <g fill="white">
      <g>
        <rect fill-opacity="1" stroke-width="2" x="0" y="0" width="150" height="169.43983191568674"
          class="image-rect"></rect>
        <svg x="0" y="0" width="150" height="169.43983191568674" class="image-svg-svg primary"
          style="overflow: visible;" filter="url(#colorsf8382063579)">
          <svg xmlns="http://www.w3.org/2000/svg" xmlns:xlink="http://www.w3.org/1999/xlink"
            version="1.1" preserveAspectRatio="none" x="0px" y="0px"
            viewBox="12.600000381469727 7.75 74.8499984741211 84.55000305175781">
            <defs>
              <g id="a">
                <path stroke="none"
                  d=" M 87.45 52.75 Q 86.6 51.95 83.95 50.25 82.3 49.15 79.65 47.4 72.4 42.7 69.1 40.95 66.7 39.7 57.85 34.35 49.35 29.2 48.6 28.8 45.85 27.4 29.75 17.9 18.8 11.4 12.6 7.75 L 12.6 87.3 20.1 92.3 Q 26.8 88.5 32.9 84.8 48.5 75.4 54.9 72.1 58.6 70.2 64.15 66.85 72.15 62.1 72.9 61.7 77.7 59.4 81.7 57.15 87.25 54 87.45 52.75 M 15.9 13.5 Q 17.5 14.6 20.1 16.25 L 20.1 85.65 Q 17.95 84.5 15.9 82.85 L 15.9 13.5 M 23.4 18.5 Q 26.45 20.6 33.25 24.65 42 29.8 53.4 36.1 79.25 51.65 81.55 52.9 L 52.8 69.15 Q 30.95 81 23.65 85.7 L 23.4 18.5 M 28.1 25.35 Q 28 25.25 27.95 25.25 27.95 25.3 28 25.35 28.05 25.35 28.1 25.35 M 65.8 48.1 Q 64.25 47.25 58.35 43.7 52.7 40.25 52.2 40 50.35 39.05 39.65 32.7 32.3 28.4 28.2 25.95 L 28.2 66.5 Q 28.2 66.6 28.2 66.65 L 28.2 79.05 Q 32.6 76.5 36.7 74.05 47.15 67.75 51.35 65.55 53.85 64.25 57.55 62.05 62.85 58.9 63.4 58.6 66.55 57.1 69.25 55.55 72.95 53.45 73.1 52.65 72.45 52.1 70.3 50.7 68.05 49.3 65.8 48.1 M 50.4 41.5 Q 56.9 45.45 61.2 48.05 L 42.5 58.6 Q 35.3 62.5 30.5 65.2 L 30.35 29.8 Q 32.4 31.25 36.95 33.85 42.8 37.35 50.4 41.5 M 30.5 74.6 L 30.5 68.3 Q 39.9 62.6 43.85 60.55 46.35 59.25 50.05 57.05 55.35 53.9 55.9 53.6 59.05 52.1 61.75 50.55 62.8 49.95 63.6 49.45 68.35 52.3 69.15 52.75 L 50 63.6 Q 35.35 71.5 30.5 74.6 Z"></path>
              </g>
            </defs>
            <g transform="matrix( 1, 0, 0, 1, 0,0) ">
              <use xlink:href="#a"></use>
            </g>
          </svg>
        </svg>
        <defs> </defs>
      </g>
    </g>
    <g transform="translate(-25.43000030517578,65.97492599487305)" fill="black" stroke="black"
      stroke-width="6" stroke-linejoin="round">
      <g data-gra="path-name" fill-rule="" class="tp-name">
        <g transform="scale(1)">
          <g>
            <path
              d="M22.58-28.68L22.58-28.68 22.58-23.77 14.18-23.77 14.18 0 9.26 0 9.26-23.77 0.82-23.77 0.82-28.68 9.26-28.68 14.18-28.68 22.58-28.68ZM35.36-21.06L35.36-21.06Q37.37-21.06 39.01-20.3 40.65-19.54 41.81-18.21 42.98-16.88 43.62-15.12 44.25-13.36 44.25-11.35L44.25-11.35 44.25 0 39.34 0 39.34-11.35Q39.34-12.33 38.97-13.19 38.6-14.05 37.9-14.75L37.9-14.75Q36.51-16.14 34.54-16.14L34.54-16.14Q32.53-16.14 31.14-14.75L31.14-14.75Q29.75-13.36 29.75-11.35L29.75-11.35 29.75 0 24.83 0 24.83-28.68 29.75-28.68 29.75-18.85Q30.85-19.83 32.25-20.45 33.64-21.06 35.36-21.06ZM51.63-18.93L51.63-18.93Q52.77-19.87 54.23-20.49 55.68-21.1 57.53-21.1L57.53-21.1 57.53-16.18Q55.07-16.18 53.35-14.46L53.35-14.46Q51.63-12.66 51.63-10.28L51.63-10.28 51.63 0 46.71 0 46.71-10.28 46.71-20.53 51.63-20.53 51.63-18.93ZM79.24-7.79L74.08-7.79 63.35-7.79Q63.76-6.84 64.53-6.11L64.53-6.11Q65.39-5.24 66.46-4.81 67.53-4.38 68.71-4.38L68.71-4.38Q70.39-4.38 71.7-5.16L71.7-5.16 76.83-3.11Q75.35-1.39 73.26-0.43 71.17 0.53 68.71 0.53L68.71 0.53Q66.46 0.53 64.49-0.31 62.53-1.15 61.05-2.62 59.58-4.1 58.74-6.06 57.9-8.03 57.9-10.24L57.9-10.24Q57.9-12.5 58.74-14.46 59.58-16.43 61.05-17.91 62.53-19.38 64.49-20.22 66.46-21.06 68.71-21.06L68.71-21.06Q70.97-21.06 72.93-20.22 74.9-19.38 76.38-17.91 77.85-16.43 78.69-14.46 79.53-12.5 79.53-10.24L79.53-10.24Q79.53-8.93 79.24-7.79L79.24-7.79ZM68.71-16.14L68.71-16.14Q66.34-16.14 64.53-14.42L64.53-14.42Q63.76-13.64 63.35-12.7L63.35-12.7 74.08-12.7Q73.67-13.64 72.89-14.42L72.89-14.42Q71.17-16.14 68.71-16.14ZM102.52-7.79L97.35-7.79 86.62-7.79Q87.03-6.84 87.81-6.11L87.81-6.11Q88.67-5.24 89.73-4.81 90.8-4.38 91.99-4.38L91.99-4.38Q93.67-4.38 94.98-5.16L94.98-5.16 100.1-3.11Q98.63-1.39 96.54-0.43 94.45 0.53 91.99 0.53L91.99 0.53Q89.73 0.53 87.77-0.31 85.8-1.15 84.33-2.62 82.85-4.1 82.01-6.06 81.17-8.03 81.17-10.24L81.17-10.24Q81.17-12.5 82.01-14.46 82.85-16.43 84.33-17.91 85.8-19.38 87.77-20.22 89.73-21.06 91.99-21.06L91.99-21.06Q94.24-21.06 96.21-20.22 98.17-19.38 99.65-17.91 101.12-16.43 101.96-14.46 102.8-12.5 102.8-10.24L102.8-10.24Q102.8-8.93 102.52-7.79L102.52-7.79ZM91.99-16.14L91.99-16.14Q89.61-16.14 87.81-14.42L87.81-14.42Q87.03-13.64 86.62-12.7L86.62-12.7 97.35-12.7Q96.95-13.64 96.17-14.42L96.17-14.42Q94.45-16.14 91.99-16.14Z"
              transform="translate(-0.8199999928474426, 29.299999237060547)"></path>
          </g>
          <g data-gra="path-name-1" transform="translate(104.9800033569336,0)">
            <g transform="scale(1)">
              <path
                d="M22.82-7.29L26.31-3.85Q24.26-1.8 21.55-0.64 18.85 0.53 15.73 0.53L15.73 0.53Q12.66 0.53 9.94-0.64 7.21-1.8 5.18-3.83 3.16-5.86 1.99-8.58 0.82-11.31 0.82-14.38L0.82-14.38Q0.82-17.46 1.99-20.18 3.16-22.9 5.18-24.93 7.21-26.96 9.94-28.13 12.66-29.3 15.73-29.3L15.73-29.3Q18.85-29.3 21.55-28.13 24.26-26.96 26.31-24.91L26.31-24.91 22.82-21.43Q21.39-22.86 19.59-23.62 17.78-24.38 15.73-24.38L15.73-24.38Q13.73-24.38 11.92-23.62 10.12-22.86 8.69-21.43L8.69-21.43Q7.25-20 6.49-18.19 5.74-16.39 5.74-14.38L5.74-14.38Q5.74-12.37 6.49-10.55 7.25-8.73 8.69-7.29L8.69-7.29Q10.12-5.86 11.92-5.12 13.73-4.38 15.73-4.38L15.73-4.38Q17.78-4.38 19.59-5.12 21.39-5.86 22.82-7.29L22.82-7.29ZM38.68-21.06L38.68-21.06Q40.69-21.06 42.33-20.3 43.97-19.54 45.13-18.21 46.3-16.88 46.94-15.12 47.57-13.36 47.57-11.35L47.57-11.35 47.57 0 42.65 0 42.65-11.35Q42.65-12.33 42.29-13.19 41.92-14.05 41.22-14.75L41.22-14.75Q39.83-16.14 37.86-16.14L37.86-16.14Q35.85-16.14 34.46-14.75L34.46-14.75Q33.07-13.36 33.07-11.35L33.07-11.35 33.07 0 28.15 0 28.15-28.68 33.07-28.68 33.07-18.85Q34.17-19.83 35.57-20.45 36.96-21.06 38.68-21.06ZM54.95 0L50.03 0 50.03-20.49 54.95-20.49 54.95 0ZM50.03-23.77L50.03-28.68 54.95-28.68 54.95-23.77 50.03-23.77ZM69.04-21.06L69.04-21.06Q71.3-21.06 73.2-20.22 75.11-19.38 76.5-17.91 77.89-16.43 78.67-14.46 79.45-12.5 79.45-10.24L79.45-10.24Q79.45-8.03 78.67-6.06 77.89-4.1 76.5-2.62 75.11-1.15 73.2-0.31 71.3 0.53 69.04 0.53L69.04 0.53Q66.54 0.53 64.66-0.41L64.66-0.41 66.42-4.79Q67.4-4.38 68.63-4.38L68.63-4.38Q69.82-4.38 70.89-4.81 71.95-5.24 72.81-6.11L72.81-6.11Q74.53-7.83 74.53-10.24L74.53-10.24Q74.53-12.7 72.81-14.42L72.81-14.42Q71.01-16.14 68.63-16.14L68.63-16.14Q66.17-16.14 64.45-14.42L64.45-14.42Q62.73-12.7 62.73-10.24L62.73-10.24 62.73-1.64 62.73 8.19 57.81 8.19 57.81-20.53 62.73-20.53 62.73-18.89Q63.92-19.83 65.48-20.45 67.03-21.06 69.04-21.06ZM89.69-12.7L89.69-12.7Q90.18-12.58 91.33-12.13 92.48-11.68 93.69-10.88 94.9-10.08 95.8-8.89 96.7-7.7 96.7-6.06L96.7-6.06Q96.7-4.63 96.23-3.44 95.76-2.25 94.86-1.35 93.95-0.45 92.64 0.04 91.33 0.53 89.69 0.53L89.69 0.53Q87.19 0.53 85.04-0.37 82.89-1.27 81.58-2.58L81.58-2.58 84.98-5.98Q86.05-4.71 87.25-4.34 88.46-3.97 89.28-3.97L89.28-3.97Q90.55-3.97 91.17-4.47 91.78-4.96 91.78-5.65L91.78-5.65Q91.78-6.15 91.37-6.51 90.96-6.88 90.41-7.13 89.86-7.38 89.28-7.52 88.71-7.66 88.34-7.79L88.34-7.79Q87.85-7.95 86.68-8.36 85.51-8.77 84.3-9.55 83.1-10.33 82.19-11.51 81.29-12.7 81.29-14.38L81.29-14.38Q81.29-16.1 81.89-17.35 82.48-18.6 83.46-19.42 84.45-20.24 85.72-20.63 86.99-21.02 88.34-21.02L88.34-21.02Q90.43-21.02 91.88-20.53 93.34-20.04 94.28-19.46L94.28-19.46Q95.35-18.77 96.08-17.91L96.08-17.91 92.64-14.46Q91.82-15.53 90.84-16.02 89.86-16.51 88.75-16.51L88.75-16.51Q87.89-16.51 87.05-16.1 86.21-15.69 86.21-14.79L86.21-14.79Q86.21-14.3 86.58-13.95 86.95-13.6 87.48-13.38 88.01-13.15 88.61-12.99 89.2-12.82 89.69-12.7Z"
                transform="translate(-0.8199999928474426, 29.299999237060547)"></path>
            </g>
          </g>
        </g>
      </g>
    </g>
  </mask>
  <defs v-gra="od"></defs>
</svg>